# xmcd
#
# Track frame offsets:
#	150
#	16812
#	48867
#	65077
#	86990
#	96230
#	124490
#	148477
#	164127
#	177965
#	192402
#	204077
#
# Disc length: 2885 seconds
#
# Revision: 1
# Processed by: cddbd v1.5.2PL0 Copyright (c) Steve Scherf et al.
# Submitted via: audiograbber 1.83.01
#
DISCID=b70b430c
DTITLE=Various Artist - Country Rock Disk2
DYEAR=1900
DGENRE=Country
TTITLE0=Johnny Cash - A Boy Named Sue  1969
TTITLE1=Molly Hatchet - Dreams I'll Never See  1978
TTITLE2=T-Bone Burnett - The Wild Truth  1987
TTITLE3=Atlanta Rhythm Section - Alien  1981
TTITLE4=Byrds - Wasn't Born to Follow  1967
TTITLE5=Black Crowes - Girl From A Pawnshop  1996
TTITLE6=Charlie Daniels Band - Uneasy Rider  1973
TTITLE7=Doug Stone - A Jukebox With A Country Song  1991
TTITLE8=Loggins and Messina - Back To Georgia  1974
TTITLE9=Rosanne Cash  - My Baby Thinks He's A Train  1981
TTITLE10=Tammy Wynette - Don't Wanna Play House  1968
TTITLE11=New Riders Of The Purple Sage - Panama Red  1973
EXTD=
EXTT0=
EXTT1=
EXTT2=
EXTT3=
EXTT4=
EXTT5=
EXTT6=
EXTT7=
EXTT8=
EXTT9=
EXTT10=
EXTT11=
PLAYORDER=
